0
SECTION
2
HEADER
9
$INSUNITS
70
4
9
$ACADVER
1
AC1014
9
$HANDSEED
5
FFFF
0
ENDSEC
0
SECTION
2
TABLES
0
TABLE
2
VPORT
5
8
100
AcDbSymbolTable
0
ENDTAB
0
TABLE
2
LTYPE
5
5
100
AcDbSymbolTable
0
LTYPE
5
14
100
AcDbSymbolTableRecord
100
AcDbLinetypeTableRecord
2
BYBLOCK
70
0
0
LTYPE
5
15
100
AcDbSymbolTableRecord
100
AcDbLinetypeTableRecord
2
BYLAYER
70
0
0
ENDTAB
0
TABLE
2
LAYER
5
2
100
AcDbSymbolTable
70
2
0
LAYER
5
50
100
AcDbSymbolTableRecord
100
AcDbLayerTableRecord
2
0
70
0
6
CONTINUOUS
0
ENDTAB
0
TABLE
2
STYLE
5
3
100
AcDbSymbolTable
70
1
0
STYLE
5
11
100
AcDbSymbolTableRecord
100
AcDbTextStyleTableRecord
2
STANDARD
70
0
0
ENDTAB
0
TABLE
2
VIEW
5
6
100
AcDbSymbolTable
70
0
0
ENDTAB
0
TABLE
2
UCS
5
7
100
AcDbSymbolTable
70
0
0
ENDTAB
0
TABLE
2
APPID
5
9
100
AcDbSymbolTable
70
2
0
APPID
5
12
100
AcDbSymbolTableRecord
100
AcDbRegAppTableRecord
2
ACAD
70
0
0
ENDTAB
0
TABLE
2
DIMSTYLE
5
A
100
AcDbSymbolTable
70
1
0
ENDTAB
0
TABLE
2
BLOCK_RECORD
5
1
100
AcDbSymbolTable
70
1
0
BLOCK_RECORD
5
1F
100
AcDbSymbolTableRecord
100
AcDbBlockTableRecord
2
*MODEL_SPACE
0
BLOCK_RECORD
5
1B
100
AcDbSymbolTableRecord
100
AcDbBlockTableRecord
2
*PAPER_SPACE
0
ENDTAB
0
ENDSEC
0
SECTION
2
BLOCKS
0
BLOCK
5
20
100
AcDbEntity
100
AcDbBlockBegin
2
*MODEL_SPACE
0
ENDBLK
5
21
100
AcDbEntity
100
AcDbBlockEnd
0
BLOCK
5
1C
100
AcDbEntity
100
AcDbBlockBegin
2
*PAPER_SPACE
0
ENDBLK
5
1D
100
AcDbEntity
100
AcDbBlockEnd
0
ENDSEC
0
SECTION
2
ENTITIES
0
LWPOLYLINE
5
100
100
AcDbEntity
8
0
100
AcDbPolyline
90
4
70
1
43
0.0
10
-62.689306345374362
20
-10.610827612185449
10
-62.689306345374369
20
-3.6108276121854481
10
-99.689306345374376
20
-3.6108276121854477
10
-99.689306345374376
20
-10.610827612185449
0
CIRCLE
5
101
100
AcDbEntity
8
0
100
AcDbCircle
10
-99.189522597398906
20
11.845056387814545
30
0
40
1.5000000000000009
210
0
220
0
230
1
0
LINE
5
102
100
AcDbEntity
8
0
100
AcDbLine
10
-80.245889211490194
20
25.389172387814547
30
0
11
-80.245889211490194
21
23.389172387814547
31
0
0
CIRCLE
5
103
100
AcDbEntity
8
0
100
AcDbCircle
10
-63.189090093349812
20
11.845056387814557
30
0
40
1.5000000000000009
210
0
220
0
230
1
0
LINE
5
104
100
AcDbEntity
8
0
100
AcDbLine
10
-81.189306345374362
20
11.889172387814551
30
0
11
-68.689306345374362
21
11.889172387814551
31
0
0
LWPOLYLINE
5
105
100
AcDbEntity
8
0
100
AcDbPolyline
90
4
70
1
43
0.0
10
-80.039306345374371
20
-0.61082761218544279
10
-82.339306345374368
20
-0.61082761218544279
10
-82.339306345374368
20
-2.610827612185449
10
-80.039306345374371
20
-2.6108276121854477
0
LINE
5
106
100
AcDbEntity
8
0
100
AcDbLine
10
-81.189306345374362
20
11.889172387814551
30
0
11
-81.189306345374362
21
24.389172387814551
31
0
0
LINE
5
107
100
AcDbEntity
8
0
100
AcDbLine
10
-82.545889211490206
20
25.389172387814547
30
0
11
-81.189306345374362
21
24.389172387814551
31
0
0
CIRCLE
5
108
100
AcDbEntity
8
0
100
AcDbCircle
10
-81.189306345374362
20
11.889172387814551
30
0
40
22.5
210
0
220
0
230
1
0
LINE
5
109
100
AcDbEntity
8
0
100
AcDbLine
10
-82.545889211490206
20
23.389172387814547
30
0
11
-82.545889211490206
21
25.389172387814547
31
0
0
LINE
5
110
100
AcDbEntity
8
0
100
AcDbLine
10
-81.189306345374362
20
24.389172387814551
30
0
11
-80.245889211490194
21
25.389172387814547
31
0
0
CIRCLE
5
111
100
AcDbEntity
8
0
100
AcDbCircle
10
-81.189306345374362
20
11.889172387814551
30
0
40
12.5
210
0
220
0
230
1
0
LINE
5
112
100
AcDbEntity
8
0
100
AcDbLine
10
-68.689306345374362
20
11.889172387814551
30
0
11
-58.689306345374362
21
11.889172387814551
31
0
0
LINE
5
113
100
AcDbEntity
8
0
100
AcDbLine
10
-81.189306345374362
20
11.889172387814551
30
0
11
-81.189306345374362
21
-0.61082761218544812
31
0
0
LINE
5
114
100
AcDbEntity
8
0
100
AcDbLine
10
-82.545889211490206
20
25.389172387814547
30
0
11
-80.245889211490194
21
25.389172387814547
31
0
0
LINE
5
115
100
AcDbEntity
8
0
100
AcDbLine
10
-81.189306345374362
20
-0.61082761218544812
30
0
11
-81.189306345374362
21
-2.6108276121854477
31
0
0
LINE
5
116
100
AcDbEntity
8
0
100
AcDbLine
10
-80.245889211490194
20
23.389172387814547
30
0
11
-82.545889211490206
21
23.389172387814547
31
0
0
CIRCLE
5
117
100
AcDbEntity
8
0
100
AcDbCircle
10
-0.93930634537432223
20
-12.920831651977437
30
0
40
2.9000000000000008
210
0
220
0
230
1
0
CIRCLE
5
118
100
AcDbEntity
8
0
100
AcDbCircle
10
-36.539306345374328
20
-12.920831651977444
30
0
40
2.9000000000000004
210
0
220
0
230
1
0
CIRCLE
5
119
100
AcDbEntity
8
0
100
AcDbCircle
10
-18.739306345374324
20
-12.920831651977437
30
0
40
2.9000000000000021
210
0
220
0
230
1
0
CIRCLE
5
120
100
AcDbEntity
8
0
100
AcDbCircle
10
-2.4393063453743213
20
-39.020831651977446
30
0
40
2.9000000000000004
210
0
220
0
230
1
0
CIRCLE
5
121
100
AcDbEntity
8
0
100
AcDbCircle
10
-36.539306345374321
20
-39.020831651977446
30
0
40
2.9000000000000004
210
0
220
0
230
1
0
CIRCLE
5
122
100
AcDbEntity
8
0
100
AcDbCircle
10
-0.93930634537434687
20
21.379168348022553
30
0
40
2.9000000000000026
210
0
220
0
230
1
0
CIRCLE
5
123
100
AcDbEntity
8
0
100
AcDbCircle
10
-18.739306345374349
20
21.379168348022553
30
0
40
2.8999999999999981
210
0
220
0
230
1
0
CIRCLE
5
124
100
AcDbEntity
8
0
100
AcDbCircle
10
-36.539306345374335
20
21.379168348022553
30
0
40
2.8999999999999999
210
0
220
0
230
1
0
CIRCLE
5
125
100
AcDbEntity
8
0
100
AcDbCircle
10
-94.578400995583408
20
39.414526548857012
30
0
40
3.4999999999999969
210
0
220
0
230
1
0
CIRCLE
5
126
100
AcDbEntity
8
0
100
AcDbCircle
10
-105.33930634537438
20
0.88917235122581095
30
0
40
3.4999999999999982
210
0
220
0
230
1
0
CIRCLE
5
127
100
AcDbEntity
8
0
100
AcDbCircle
10
67.860693654625649
20
0.88917235122581029
30
0
40
3.4999999999999982
210
0
220
0
230
1
0
CIRCLE
5
128
100
AcDbEntity
8
0
100
AcDbCircle
10
19.260693654625644
20
0.88917235122581006
30
0
40
3.5000000000000018
210
0
220
0
230
1
0
CIRCLE
5
129
100
AcDbEntity
8
0
100
AcDbCircle
10
13.010693654625697
20
-32.263985574553814
30
0
40
3.5000000000000004
210
0
220
0
230
1
0
CIRCLE
5
130
100
AcDbEntity
8
0
100
AcDbCircle
10
-56.739306345374352
20
0.88917235122581095
30
0
40
3.4999999999999964
210
0
220
0
230
1
0
CIRCLE
5
131
100
AcDbEntity
8
0
100
AcDbCircle
10
-18.739306345374334
20
13.379168348022553
30
0
40
3.5000000000000004
210
0
220
0
230
1
0
CIRCLE
5
132
100
AcDbEntity
8
0
100
AcDbCircle
10
57.099788304831421
20
39.414526548854802
30
0
40
3.4999999999999982
210
0
220
0
230
1
0
CIRCLE
5
133
100
AcDbEntity
8
0
100
AcDbCircle
10
-50.489306345374345
20
-32.263985574553836
30
0
40
3.5000000000000009
210
0
220
0
230
1
0
LINE
5
134
100
AcDbEntity
8
0
100
AcDbLine
10
-105.33981242952282
20
4.3891723146370705
30
0
11
-105.33981242952282
21
-2.610827612185449
31
0
0
LWPOLYLINE
5
135
100
AcDbEntity
8
0
100
AcDbPolyline
90
4
70
1
43
0.0
10
62.210693654625643
20
-3.6108276487741833
10
25.210693654625636
20
-3.6108276487741833
10
25.210693654625636
20
-10.610827648774181
10
62.210693654625643
20
-10.610827648774181
0
LINE
5
136
100
AcDbEntity
8
0
100
AcDbLine
10
42.563048028438217
20
23.389172351225817
30
0
11
42.563048028438217
21
25.38917235122582
31
0
0
LINE
5
137
100
AcDbEntity
8
0
100
AcDbLine
10
43.710693654625643
20
11.889172351225819
30
0
11
56.210693654625643
21
11.889172351225819
31
0
0
LINE
5
138
100
AcDbEntity
8
0
100
AcDbLine
10
42.563048028438217
20
25.38917235122582
30
0
11
44.863048028438222
21
25.38917235122582
31
0
0
LWPOLYLINE
5
139
100
AcDbEntity
8
0
100
AcDbPolyline
90
4
70
1
43
0.0
10
42.560693654625652
20
-0.61082764877418538
10
42.560693654625652
20
-2.6108276487741851
10
44.860693654625649
20
-2.6108276487741873
10
44.860693654625649
20
-0.61082764877417994
0
LINE
5
140
100
AcDbEntity
8
0
100
AcDbLine
10
42.563048028438217
20
25.38917235122582
30
0
11
43.710693654625643
21
24.389172351225817
31
0
0
LINE
5
141
100
AcDbEntity
8
0
100
AcDbLine
10
43.710693654625643
20
11.889172351225819
30
0
11
43.710693654625643
21
-0.61082764877418261
31
0
0
LINE
5
142
100
AcDbEntity
8
0
100
AcDbLine
10
56.210693654625643
20
11.889172351225819
30
0
11
66.210693654625643
21
11.889172351225819
31
0
0
LINE
5
143
100
AcDbEntity
8
0
100
AcDbLine
10
43.710693654625643
20
11.889172351225819
30
0
11
43.710693654625643
21
24.389172351225817
31
0
0
CIRCLE
5
144
100
AcDbEntity
8
0
100
AcDbCircle
10
61.710909906650201
20
11.84505635122582
30
0
40
1.5000000000000009
210
0
220
0
230
1
0
LINE
5
145
100
AcDbEntity
8
0
100
AcDbLine
10
43.710693654625643
20
24.389172351225817
30
0
11
44.863048028438222
21
25.38917235122582
31
0
0
CIRCLE
5
146
100
AcDbEntity
8
0
100
AcDbCircle
10
25.710477402601093
20
11.845056351225816
30
0
40
1.5000000000000009
210
0
220
0
230
1
0
LINE
5
147
100
AcDbEntity
8
0
100
AcDbLine
10
44.863048028438222
20
25.38917235122582
30
0
11
44.863048028438229
21
23.389172351225817
31
0
0
LINE
5
148
100
AcDbEntity
8
0
100
AcDbLine
10
44.863048028438229
20
23.389172351225817
30
0
11
42.563048028438217
21
23.389172351225817
31
0
0
LINE
5
149
100
AcDbEntity
8
0
100
AcDbLine
10
43.710693654625643
20
-0.61082764877418261
30
0
11
43.710693654625643
21
-2.6108276487741868
31
0
0
CIRCLE
5
150
100
AcDbEntity
8
0
100
AcDbCircle
10
43.710693654625643
20
11.889172351225819
30
0
40
12.5
210
0
220
0
230
1
0
CIRCLE
5
151
100
AcDbEntity
8
0
100
AcDbCircle
10
43.710693654625643
20
11.889172351225819
30
0
40
22.5
210
0
220
0
230
1
0
LINE
5
152
100
AcDbEntity
8
0
100
AcDbLine
10
67.860693654625649
20
0.88917235122581006
30
0
11
67.860693654625649
21
-2.6108276487741877
31
0
0
LWPOLYLINE
5
153
100
AcDbEntity
8
0
100
AcDbPolyline
90
4
70
1
43
0.0
10
86.260693654625669
20
60.979168348022554
10
-123.73930634537433
20
60.979168348022554
10
-123.73930634537433
20
-49.020831651977446
10
86.260693654625669
20
-49.020831651977446
0
LWPOLYLINE
5
154
100
AcDbEntity
8
0
100
AcDbPolyline
90
4
70
1
43
0.0
10
-99.189306345374376
20
-4.1108276121854477
10
-100.18930634537438
20
-4.1108276121854477
10
-100.18930634537438
20
-5.1108276121854477
10
-99.189306345374376
20
-5.1108276121854477
0
LINE
5
155
100
AcDbEntity
8
0
100
AcDbLine
10
-99.689306345374376
20
-4.1108276121854477
30
0
11
-99.689306345374376
21
-5.1108276121854477
31
0
0
LWPOLYLINE
5
156
100
AcDbEntity
8
0
100
AcDbPolyline
90
4
70
1
43
0.0
10
-100.18930634537438
20
-7.6108276121854477
10
-99.189306345374376
20
-7.6108276121854477
10
-99.189306345374376
20
-6.6108276121854477
10
-100.18930634537438
20
-6.6108276121854477
0
LWPOLYLINE
5
157
100
AcDbEntity
8
0
100
AcDbPolyline
90
4
70
1
43
0.0
10
-100.18930634537438
20
-10.110827612185446
10
-99.189306345374376
20
-10.110827612185446
10
-99.189306345374376
20
-9.1108276121854477
10
-100.18930634537438
20
-9.1108276121854477
0
LWPOLYLINE
5
158
100
AcDbEntity
8
0
100
AcDbPolyline
90
4
70
1
43
0.0
10
25.710693654625636
20
-5.1108276487741833
10
24.710693654625636
20
-5.1108276487741833
10
24.710693654625636
20
-4.1108276487741833
10
25.710693654625636
20
-4.1108276487741833
0
LINE
5
159
100
AcDbEntity
8
0
100
AcDbLine
10
25.210693654625636
20
-4.1108276487741833
30
0
11
25.210693654625636
21
-5.1108276487741833
31
0
0
LWPOLYLINE
5
160
100
AcDbEntity
8
0
100
AcDbPolyline
90
4
70
1
43
0.0
10
25.710693654625636
20
-7.6108276487741833
10
24.710693654625636
20
-7.6108276487741833
10
24.710693654625636
20
-6.6108276487741824
10
25.710693654625636
20
-6.6108276487741824
0
LWPOLYLINE
5
161
100
AcDbEntity
8
0
100
AcDbPolyline
90
4
70
1
43
0.0
10
25.710693654625636
20
-10.110827648774183
10
24.710693654625636
20
-10.110827648774183
10
24.710693654625636
20
-9.1108276487741833
10
25.710693654625636
20
-9.1108276487741833
0
CIRCLE
5
162
100
AcDbEntity
8
0
100
AcDbCircle
10
-81.189306345374362
20
5.3891723878145523
30
0
40
2.9000000000000026
210
0
220
0
230
1
0
CIRCLE
5
163
100
AcDbEntity
8
0
100
AcDbCircle
10
43.710693654625643
20
5.3891723512258185
30
0
40
2.9000000000000012
210
0
220
0
230
1
0
ENDSEC
0
SECTION
2
OBJECTS
0
DICTIONARY
5
C
100
AcDbDictionary
3
ACAD_GROUP
350
D
3
ACAD_MLINESTYLE
350
17
0
DICTIONARY
5
D
100
AcDbDictionary
0
DICTIONARY
5
1A
330
C
100
AcDbDictionary
0
DICTIONARY
5
17
100
AcDbDictionary
0
ENDSEC
0
EOF
